<mxfile host="app.diagrams.net" modified="2022-03-03T13:40:04.287Z" agent="5.0 (Windows NT 10.0; Win64; x64) AppleWebKit/537.36 (KHTML, like Gecko) Chrome/98.0.4758.102 Safari/537.36 Edg/98.0.1108.62" etag="JMQZZb5rz9SxGDDEhxY0" version="16.6.5" type="github">
  <diagram id="k4ZMVt42LVbyHg1uAFrt" name="Page-1">
    <mxGraphModel dx="1291" dy="553" grid="1" gridSize="10" guides="1" tooltips="1" connect="1" arrows="1" fold="1" page="1" pageScale="1" pageWidth="827" pageHeight="1169" math="0" shadow="0">
      <root>
        <mxCell id="0" />
        <mxCell id="1" parent="0" />
        <mxCell id="cWkc2oGVvxqlGXrYc0vV-1" value="主观规范" style="text;html=1;strokeColor=none;fillColor=none;align=center;verticalAlign=middle;whiteSpace=wrap;rounded=0;horizontal=1;fontSize=17;fontFamily=Helvetica;" vertex="1" parent="1">
          <mxGeometry width="130" height="70" as="geometry" />
        </mxCell>
        <mxCell id="cWkc2oGVvxqlGXrYc0vV-2" value="" style="ellipse;whiteSpace=wrap;html=1;fontFamily=Helvetica;fontSize=17;" vertex="1" parent="1">
          <mxGeometry x="190" width="180" height="90" as="geometry" />
        </mxCell>
      </root>
    </mxGraphModel>
  </diagram>
</mxfile>
